<mxfile host="Electron" modified="2023-08-28T05:35:10.773Z" agent="Mozilla/5.0 (Windows NT 10.0; Win64; x64) AppleWebKit/537.36 (KHTML, like Gecko) draw.io/21.6.8 Chrome/114.0.5735.289 Electron/25.5.0 Safari/537.36" etag="W4Vi7G__6GsWnxsTin3R" version="21.6.8" type="device">
  <diagram name="PÃ¡gina-1" id="6GS7FMP0zTYircm1259a">
    <mxGraphModel dx="683" dy="402" grid="1" gridSize="10" guides="1" tooltips="1" connect="1" arrows="1" fold="1" page="1" pageScale="1" pageWidth="827" pageHeight="1169" math="0" shadow="0">
      <root>
        <mxCell id="0" />
        <mxCell id="1" parent="0" />
        <mxCell id="pYIt9gIeH62Lgz-Wt7QY-2" value="SALAS&lt;br&gt;CINEMATOGRAFICAS" style="rounded=0;whiteSpace=wrap;html=1;" vertex="1" parent="1">
          <mxGeometry x="168.5" y="610" width="150" height="40" as="geometry" />
        </mxCell>
        <mxCell id="pYIt9gIeH62Lgz-Wt7QY-83" value="PRODUCTORA" style="rounded=0;whiteSpace=wrap;html=1;" vertex="1" parent="1">
          <mxGeometry x="506.75" y="610" width="95.5" height="35" as="geometry" />
        </mxCell>
        <mxCell id="BneH57mvit4UD5fiZEYW-1" value="PELICULA" style="rounded=0;whiteSpace=wrap;html=1;" parent="1" vertex="1">
          <mxGeometry x="374" y="400" width="80" height="30" as="geometry" />
        </mxCell>
        <mxCell id="pYIt9gIeH62Lgz-Wt7QY-95" value="" style="ellipse;whiteSpace=wrap;html=1;" vertex="1" parent="1">
          <mxGeometry x="490" y="420" width="70" height="40" as="geometry" />
        </mxCell>
        <mxCell id="pYIt9gIeH62Lgz-Wt7QY-7" style="rounded=0;orthogonalLoop=1;jettySize=auto;html=1;exitX=0.25;exitY=0;exitDx=0;exitDy=0;entryX=0.5;entryY=1;entryDx=0;entryDy=0;endArrow=none;endFill=0;edgeStyle=orthogonalEdgeStyle;startArrow=oval;startFill=1;" edge="1" parent="1" source="BneH57mvit4UD5fiZEYW-1" target="pYIt9gIeH62Lgz-Wt7QY-3">
          <mxGeometry relative="1" as="geometry" />
        </mxCell>
        <mxCell id="pYIt9gIeH62Lgz-Wt7QY-38" style="edgeStyle=orthogonalEdgeStyle;rounded=0;orthogonalLoop=1;jettySize=auto;html=1;exitX=0.75;exitY=0;exitDx=0;exitDy=0;entryX=0.5;entryY=1;entryDx=0;entryDy=0;endArrow=none;endFill=0;startArrow=oval;startFill=1;" edge="1" parent="1" source="BneH57mvit4UD5fiZEYW-1" target="pYIt9gIeH62Lgz-Wt7QY-27">
          <mxGeometry relative="1" as="geometry" />
        </mxCell>
        <mxCell id="pYIt9gIeH62Lgz-Wt7QY-64" style="rounded=0;orthogonalLoop=1;jettySize=auto;html=1;exitX=0.5;exitY=0;exitDx=0;exitDy=0;entryX=0.5;entryY=1;entryDx=0;entryDy=0;endArrow=none;endFill=0;" edge="1" parent="1" source="BneH57mvit4UD5fiZEYW-1" target="pYIt9gIeH62Lgz-Wt7QY-59">
          <mxGeometry relative="1" as="geometry" />
        </mxCell>
        <mxCell id="pYIt9gIeH62Lgz-Wt7QY-80" style="edgeStyle=orthogonalEdgeStyle;rounded=0;orthogonalLoop=1;jettySize=auto;html=1;exitX=0.25;exitY=1;exitDx=0;exitDy=0;entryX=0.5;entryY=0;entryDx=0;entryDy=0;endArrow=none;endFill=0;startArrow=oval;startFill=1;" edge="1" parent="1" source="BneH57mvit4UD5fiZEYW-1" target="pYIt9gIeH62Lgz-Wt7QY-4">
          <mxGeometry relative="1" as="geometry">
            <Array as="points">
              <mxPoint x="394" y="490" />
              <mxPoint x="244" y="490" />
            </Array>
          </mxGeometry>
        </mxCell>
        <mxCell id="pYIt9gIeH62Lgz-Wt7QY-82" style="edgeStyle=orthogonalEdgeStyle;rounded=0;orthogonalLoop=1;jettySize=auto;html=1;exitX=0.75;exitY=1;exitDx=0;exitDy=0;endArrow=none;endFill=0;startArrow=oval;startFill=1;" edge="1" parent="1" source="BneH57mvit4UD5fiZEYW-1" target="pYIt9gIeH62Lgz-Wt7QY-81">
          <mxGeometry relative="1" as="geometry">
            <Array as="points">
              <mxPoint x="434" y="490" />
              <mxPoint x="555" y="490" />
            </Array>
          </mxGeometry>
        </mxCell>
        <mxCell id="pYIt9gIeH62Lgz-Wt7QY-97" style="rounded=0;orthogonalLoop=1;jettySize=auto;html=1;exitX=1;exitY=1;exitDx=0;exitDy=0;entryX=0;entryY=0.5;entryDx=0;entryDy=0;endArrow=none;endFill=0;" edge="1" parent="1" source="BneH57mvit4UD5fiZEYW-1" target="pYIt9gIeH62Lgz-Wt7QY-95">
          <mxGeometry relative="1" as="geometry" />
        </mxCell>
        <mxCell id="pYIt9gIeH62Lgz-Wt7QY-99" value="" style="edgeStyle=orthogonalEdgeStyle;rounded=0;orthogonalLoop=1;jettySize=auto;html=1;endArrow=none;endFill=0;" edge="1" parent="1" source="BneH57mvit4UD5fiZEYW-1" target="pYIt9gIeH62Lgz-Wt7QY-98">
          <mxGeometry relative="1" as="geometry" />
        </mxCell>
        <mxCell id="pYIt9gIeH62Lgz-Wt7QY-94" style="rounded=0;orthogonalLoop=1;jettySize=auto;html=1;exitX=0.75;exitY=1;exitDx=0;exitDy=0;entryX=0;entryY=0;entryDx=0;entryDy=0;endArrow=none;endFill=0;" edge="1" parent="1" source="pYIt9gIeH62Lgz-Wt7QY-1" target="pYIt9gIeH62Lgz-Wt7QY-93">
          <mxGeometry relative="1" as="geometry" />
        </mxCell>
        <mxCell id="pYIt9gIeH62Lgz-Wt7QY-1" value="ACTORES" style="rounded=0;whiteSpace=wrap;html=1;" vertex="1" parent="1">
          <mxGeometry x="203.5" y="210" width="80" height="30" as="geometry" />
        </mxCell>
        <mxCell id="pYIt9gIeH62Lgz-Wt7QY-5" style="edgeStyle=orthogonalEdgeStyle;rounded=0;orthogonalLoop=1;jettySize=auto;html=1;exitX=0.5;exitY=0;exitDx=0;exitDy=0;entryX=0.5;entryY=1;entryDx=0;entryDy=0;endArrow=none;endFill=0;startArrow=oval;startFill=1;" edge="1" parent="1" source="pYIt9gIeH62Lgz-Wt7QY-2" target="pYIt9gIeH62Lgz-Wt7QY-4">
          <mxGeometry relative="1" as="geometry" />
        </mxCell>
        <mxCell id="pYIt9gIeH62Lgz-Wt7QY-9" style="edgeStyle=orthogonalEdgeStyle;rounded=0;orthogonalLoop=1;jettySize=auto;html=1;exitX=0.5;exitY=0;exitDx=0;exitDy=0;entryX=0.5;entryY=1;entryDx=0;entryDy=0;endArrow=oval;endFill=1;" edge="1" parent="1" source="pYIt9gIeH62Lgz-Wt7QY-3" target="pYIt9gIeH62Lgz-Wt7QY-1">
          <mxGeometry relative="1" as="geometry" />
        </mxCell>
        <mxCell id="pYIt9gIeH62Lgz-Wt7QY-3" value="participa" style="rhombus;whiteSpace=wrap;html=1;" vertex="1" parent="1">
          <mxGeometry x="198.5" y="300" width="90" height="60" as="geometry" />
        </mxCell>
        <mxCell id="pYIt9gIeH62Lgz-Wt7QY-4" value="exhibe" style="rhombus;whiteSpace=wrap;html=1;" vertex="1" parent="1">
          <mxGeometry x="198.5" y="520" width="90" height="60" as="geometry" />
        </mxCell>
        <mxCell id="pYIt9gIeH62Lgz-Wt7QY-85" style="rounded=0;orthogonalLoop=1;jettySize=auto;html=1;exitX=0.5;exitY=0;exitDx=0;exitDy=0;entryX=0.25;entryY=1;entryDx=0;entryDy=0;endArrow=none;endFill=0;" edge="1" parent="1" source="pYIt9gIeH62Lgz-Wt7QY-11" target="pYIt9gIeH62Lgz-Wt7QY-2">
          <mxGeometry relative="1" as="geometry" />
        </mxCell>
        <mxCell id="pYIt9gIeH62Lgz-Wt7QY-11" value="nombre_de_sala" style="ellipse;whiteSpace=wrap;html=1;" vertex="1" parent="1">
          <mxGeometry x="130" y="690" width="101" height="40" as="geometry" />
        </mxCell>
        <mxCell id="pYIt9gIeH62Lgz-Wt7QY-86" style="rounded=0;orthogonalLoop=1;jettySize=auto;html=1;exitX=0.5;exitY=0;exitDx=0;exitDy=0;entryX=0.75;entryY=1;entryDx=0;entryDy=0;endArrow=none;endFill=0;" edge="1" parent="1" source="pYIt9gIeH62Lgz-Wt7QY-12" target="pYIt9gIeH62Lgz-Wt7QY-2">
          <mxGeometry relative="1" as="geometry" />
        </mxCell>
        <mxCell id="pYIt9gIeH62Lgz-Wt7QY-12" value="&lt;u&gt;domicilio_sala&lt;/u&gt;" style="ellipse;whiteSpace=wrap;html=1;" vertex="1" parent="1">
          <mxGeometry x="245.5" y="690" width="101" height="40" as="geometry" />
        </mxCell>
        <mxCell id="pYIt9gIeH62Lgz-Wt7QY-22" style="edgeStyle=orthogonalEdgeStyle;rounded=0;orthogonalLoop=1;jettySize=auto;html=1;exitX=1;exitY=0.5;exitDx=0;exitDy=0;entryX=0;entryY=0.5;entryDx=0;entryDy=0;endArrow=none;endFill=0;" edge="1" parent="1" source="pYIt9gIeH62Lgz-Wt7QY-15" target="pYIt9gIeH62Lgz-Wt7QY-1">
          <mxGeometry relative="1" as="geometry" />
        </mxCell>
        <mxCell id="pYIt9gIeH62Lgz-Wt7QY-15" value="nombre" style="ellipse;whiteSpace=wrap;html=1;" vertex="1" parent="1">
          <mxGeometry x="108.5" y="210" width="60" height="30" as="geometry" />
        </mxCell>
        <mxCell id="pYIt9gIeH62Lgz-Wt7QY-23" style="rounded=0;orthogonalLoop=1;jettySize=auto;html=1;exitX=1;exitY=1;exitDx=0;exitDy=0;entryX=0;entryY=0;entryDx=0;entryDy=0;endArrow=none;endFill=0;" edge="1" parent="1" source="pYIt9gIeH62Lgz-Wt7QY-16" target="pYIt9gIeH62Lgz-Wt7QY-1">
          <mxGeometry relative="1" as="geometry" />
        </mxCell>
        <mxCell id="pYIt9gIeH62Lgz-Wt7QY-16" value="nacionalidad" style="ellipse;whiteSpace=wrap;html=1;" vertex="1" parent="1">
          <mxGeometry x="103" y="140" width="71" height="40" as="geometry" />
        </mxCell>
        <mxCell id="pYIt9gIeH62Lgz-Wt7QY-21" style="rounded=0;orthogonalLoop=1;jettySize=auto;html=1;exitX=0;exitY=0.5;exitDx=0;exitDy=0;entryX=1;entryY=0.5;entryDx=0;entryDy=0;endArrow=none;endFill=0;" edge="1" parent="1" source="pYIt9gIeH62Lgz-Wt7QY-17" target="pYIt9gIeH62Lgz-Wt7QY-1">
          <mxGeometry relative="1" as="geometry" />
        </mxCell>
        <mxCell id="pYIt9gIeH62Lgz-Wt7QY-17" value="sexo" style="ellipse;whiteSpace=wrap;html=1;" vertex="1" parent="1">
          <mxGeometry x="318.5" y="210" width="40" height="30" as="geometry" />
        </mxCell>
        <mxCell id="pYIt9gIeH62Lgz-Wt7QY-24" style="edgeStyle=orthogonalEdgeStyle;rounded=0;orthogonalLoop=1;jettySize=auto;html=1;exitX=0.5;exitY=1;exitDx=0;exitDy=0;entryX=0.5;entryY=0;entryDx=0;entryDy=0;endArrow=none;endFill=0;" edge="1" parent="1" source="pYIt9gIeH62Lgz-Wt7QY-18" target="pYIt9gIeH62Lgz-Wt7QY-1">
          <mxGeometry relative="1" as="geometry" />
        </mxCell>
        <mxCell id="pYIt9gIeH62Lgz-Wt7QY-18" value="fecha_nacimiento" style="ellipse;whiteSpace=wrap;html=1;" vertex="1" parent="1">
          <mxGeometry x="188.5" y="140" width="110" height="40" as="geometry" />
        </mxCell>
        <mxCell id="pYIt9gIeH62Lgz-Wt7QY-20" style="rounded=0;orthogonalLoop=1;jettySize=auto;html=1;exitX=0;exitY=1;exitDx=0;exitDy=0;entryX=1;entryY=0;entryDx=0;entryDy=0;endArrow=none;endFill=0;" edge="1" parent="1" source="pYIt9gIeH62Lgz-Wt7QY-19" target="pYIt9gIeH62Lgz-Wt7QY-1">
          <mxGeometry relative="1" as="geometry" />
        </mxCell>
        <mxCell id="pYIt9gIeH62Lgz-Wt7QY-19" value="honorarios" style="ellipse;whiteSpace=wrap;html=1;" vertex="1" parent="1">
          <mxGeometry x="303" y="140" width="71" height="40" as="geometry" />
        </mxCell>
        <mxCell id="pYIt9gIeH62Lgz-Wt7QY-55" style="edgeStyle=orthogonalEdgeStyle;rounded=0;orthogonalLoop=1;jettySize=auto;html=1;exitX=0.5;exitY=0;exitDx=0;exitDy=0;endArrow=none;endFill=0;" edge="1" parent="1" source="pYIt9gIeH62Lgz-Wt7QY-25" target="pYIt9gIeH62Lgz-Wt7QY-39">
          <mxGeometry relative="1" as="geometry" />
        </mxCell>
        <mxCell id="pYIt9gIeH62Lgz-Wt7QY-58" style="rounded=0;orthogonalLoop=1;jettySize=auto;html=1;exitX=1;exitY=0.5;exitDx=0;exitDy=0;entryX=0;entryY=0.5;entryDx=0;entryDy=0;endArrow=none;endFill=0;" edge="1" parent="1" source="pYIt9gIeH62Lgz-Wt7QY-25" target="pYIt9gIeH62Lgz-Wt7QY-46">
          <mxGeometry relative="1" as="geometry" />
        </mxCell>
        <mxCell id="pYIt9gIeH62Lgz-Wt7QY-25" value="DIRECTOR" style="rounded=0;whiteSpace=wrap;html=1;" vertex="1" parent="1">
          <mxGeometry x="514.5" y="210" width="80" height="30" as="geometry" />
        </mxCell>
        <mxCell id="pYIt9gIeH62Lgz-Wt7QY-26" style="edgeStyle=orthogonalEdgeStyle;rounded=0;orthogonalLoop=1;jettySize=auto;html=1;exitX=0.5;exitY=0;exitDx=0;exitDy=0;entryX=0.5;entryY=1;entryDx=0;entryDy=0;endArrow=oval;endFill=1;" edge="1" parent="1" source="pYIt9gIeH62Lgz-Wt7QY-27" target="pYIt9gIeH62Lgz-Wt7QY-25">
          <mxGeometry relative="1" as="geometry" />
        </mxCell>
        <mxCell id="pYIt9gIeH62Lgz-Wt7QY-27" value="dirige" style="rhombus;whiteSpace=wrap;html=1;" vertex="1" parent="1">
          <mxGeometry x="509.5" y="300" width="90" height="60" as="geometry" />
        </mxCell>
        <mxCell id="pYIt9gIeH62Lgz-Wt7QY-30" style="rounded=0;orthogonalLoop=1;jettySize=auto;html=1;exitX=1;exitY=1;exitDx=0;exitDy=0;entryX=0;entryY=0;entryDx=0;entryDy=0;endArrow=none;endFill=0;" edge="1" parent="1" source="pYIt9gIeH62Lgz-Wt7QY-31" target="pYIt9gIeH62Lgz-Wt7QY-25">
          <mxGeometry relative="1" as="geometry" />
        </mxCell>
        <mxCell id="pYIt9gIeH62Lgz-Wt7QY-31" value="pais_origen" style="ellipse;whiteSpace=wrap;html=1;" vertex="1" parent="1">
          <mxGeometry x="414" y="160" width="71" height="40" as="geometry" />
        </mxCell>
        <mxCell id="pYIt9gIeH62Lgz-Wt7QY-39" value="director_principal" style="ellipse;whiteSpace=wrap;html=1;" vertex="1" parent="1">
          <mxGeometry x="501.25" y="130" width="106.5" height="40" as="geometry" />
        </mxCell>
        <mxCell id="pYIt9gIeH62Lgz-Wt7QY-45" style="rounded=0;orthogonalLoop=1;jettySize=auto;html=1;exitX=1;exitY=0.5;exitDx=0;exitDy=0;entryX=0.5;entryY=0;entryDx=0;entryDy=0;endArrow=none;endFill=0;" edge="1" parent="1" source="pYIt9gIeH62Lgz-Wt7QY-40" target="pYIt9gIeH62Lgz-Wt7QY-15">
          <mxGeometry relative="1" as="geometry" />
        </mxCell>
        <mxCell id="pYIt9gIeH62Lgz-Wt7QY-40" value="nombre_pila" style="ellipse;whiteSpace=wrap;html=1;" vertex="1" parent="1">
          <mxGeometry y="170" width="80" height="30" as="geometry" />
        </mxCell>
        <mxCell id="pYIt9gIeH62Lgz-Wt7QY-44" style="rounded=0;orthogonalLoop=1;jettySize=auto;html=1;exitX=1;exitY=0.5;exitDx=0;exitDy=0;entryX=0;entryY=0.5;entryDx=0;entryDy=0;endArrow=none;endFill=0;" edge="1" parent="1" source="pYIt9gIeH62Lgz-Wt7QY-41" target="pYIt9gIeH62Lgz-Wt7QY-15">
          <mxGeometry relative="1" as="geometry" />
        </mxCell>
        <mxCell id="pYIt9gIeH62Lgz-Wt7QY-41" value="ap_paterno" style="ellipse;whiteSpace=wrap;html=1;" vertex="1" parent="1">
          <mxGeometry x="5" y="210" width="70" height="30" as="geometry" />
        </mxCell>
        <mxCell id="pYIt9gIeH62Lgz-Wt7QY-43" style="rounded=0;orthogonalLoop=1;jettySize=auto;html=1;exitX=1;exitY=0.5;exitDx=0;exitDy=0;entryX=0.5;entryY=1;entryDx=0;entryDy=0;endArrow=none;endFill=0;dashed=1;" edge="1" parent="1" source="pYIt9gIeH62Lgz-Wt7QY-42" target="pYIt9gIeH62Lgz-Wt7QY-15">
          <mxGeometry relative="1" as="geometry" />
        </mxCell>
        <mxCell id="pYIt9gIeH62Lgz-Wt7QY-42" value="ap_materno" style="ellipse;whiteSpace=wrap;html=1;" vertex="1" parent="1">
          <mxGeometry x="5" y="250" width="70" height="30" as="geometry" />
        </mxCell>
        <mxCell id="pYIt9gIeH62Lgz-Wt7QY-54" style="rounded=0;orthogonalLoop=1;jettySize=auto;html=1;exitX=1;exitY=0;exitDx=0;exitDy=0;entryX=0;entryY=1;entryDx=0;entryDy=0;endArrow=none;endFill=0;" edge="1" parent="1" source="pYIt9gIeH62Lgz-Wt7QY-46" target="pYIt9gIeH62Lgz-Wt7QY-48">
          <mxGeometry relative="1" as="geometry" />
        </mxCell>
        <mxCell id="pYIt9gIeH62Lgz-Wt7QY-56" style="edgeStyle=orthogonalEdgeStyle;rounded=0;orthogonalLoop=1;jettySize=auto;html=1;exitX=1;exitY=0.5;exitDx=0;exitDy=0;entryX=0;entryY=0.5;entryDx=0;entryDy=0;endArrow=none;endFill=0;" edge="1" parent="1" source="pYIt9gIeH62Lgz-Wt7QY-46" target="pYIt9gIeH62Lgz-Wt7QY-50">
          <mxGeometry relative="1" as="geometry" />
        </mxCell>
        <mxCell id="pYIt9gIeH62Lgz-Wt7QY-57" style="rounded=0;orthogonalLoop=1;jettySize=auto;html=1;exitX=1;exitY=1;exitDx=0;exitDy=0;entryX=0;entryY=0.5;entryDx=0;entryDy=0;endArrow=none;endFill=0;dashed=1;" edge="1" parent="1" source="pYIt9gIeH62Lgz-Wt7QY-46" target="pYIt9gIeH62Lgz-Wt7QY-52">
          <mxGeometry relative="1" as="geometry" />
        </mxCell>
        <mxCell id="pYIt9gIeH62Lgz-Wt7QY-46" value="nombre" style="ellipse;whiteSpace=wrap;html=1;" vertex="1" parent="1">
          <mxGeometry x="623" y="210" width="60" height="30" as="geometry" />
        </mxCell>
        <mxCell id="pYIt9gIeH62Lgz-Wt7QY-48" value="nombre_pila" style="ellipse;whiteSpace=wrap;html=1;" vertex="1" parent="1">
          <mxGeometry x="705" y="160" width="80" height="30" as="geometry" />
        </mxCell>
        <mxCell id="pYIt9gIeH62Lgz-Wt7QY-50" value="ap_paterno" style="ellipse;whiteSpace=wrap;html=1;" vertex="1" parent="1">
          <mxGeometry x="710" y="210" width="70" height="30" as="geometry" />
        </mxCell>
        <mxCell id="pYIt9gIeH62Lgz-Wt7QY-52" value="ap_materno" style="ellipse;whiteSpace=wrap;html=1;" vertex="1" parent="1">
          <mxGeometry x="710" y="260" width="70" height="30" as="geometry" />
        </mxCell>
        <mxCell id="pYIt9gIeH62Lgz-Wt7QY-53" style="edgeStyle=orthogonalEdgeStyle;rounded=0;orthogonalLoop=1;jettySize=auto;html=1;exitX=0.5;exitY=1;exitDx=0;exitDy=0;" edge="1" parent="1" source="pYIt9gIeH62Lgz-Wt7QY-52" target="pYIt9gIeH62Lgz-Wt7QY-52">
          <mxGeometry relative="1" as="geometry" />
        </mxCell>
        <mxCell id="pYIt9gIeH62Lgz-Wt7QY-59" value="titulo" style="ellipse;whiteSpace=wrap;html=1;" vertex="1" parent="1">
          <mxGeometry x="394" y="320" width="40" height="20" as="geometry" />
        </mxCell>
        <mxCell id="pYIt9gIeH62Lgz-Wt7QY-62" style="rounded=0;orthogonalLoop=1;jettySize=auto;html=1;exitX=1;exitY=0.5;exitDx=0;exitDy=0;entryX=0;entryY=1;entryDx=0;entryDy=0;endArrow=none;endFill=0;" edge="1" parent="1" source="pYIt9gIeH62Lgz-Wt7QY-60" target="BneH57mvit4UD5fiZEYW-1">
          <mxGeometry relative="1" as="geometry" />
        </mxCell>
        <mxCell id="pYIt9gIeH62Lgz-Wt7QY-60" value="clasificacion" style="ellipse;whiteSpace=wrap;html=1;" vertex="1" parent="1">
          <mxGeometry x="270" y="420" width="76.5" height="40" as="geometry" />
        </mxCell>
        <mxCell id="pYIt9gIeH62Lgz-Wt7QY-61" value="genero" style="ellipse;whiteSpace=wrap;html=1;" vertex="1" parent="1">
          <mxGeometry x="497.25" y="425" width="55.5" height="30" as="geometry" />
        </mxCell>
        <mxCell id="pYIt9gIeH62Lgz-Wt7QY-78" style="rounded=0;orthogonalLoop=1;jettySize=auto;html=1;exitX=1;exitY=0.5;exitDx=0;exitDy=0;entryX=0.25;entryY=1;entryDx=0;entryDy=0;endArrow=none;endFill=0;" edge="1" parent="1" source="pYIt9gIeH62Lgz-Wt7QY-77" target="pYIt9gIeH62Lgz-Wt7QY-25">
          <mxGeometry relative="1" as="geometry" />
        </mxCell>
        <mxCell id="pYIt9gIeH62Lgz-Wt7QY-77" value="&lt;u&gt;id&lt;/u&gt;" style="ellipse;whiteSpace=wrap;html=1;" vertex="1" parent="1">
          <mxGeometry x="454" y="250" width="35" height="30" as="geometry" />
        </mxCell>
        <mxCell id="pYIt9gIeH62Lgz-Wt7QY-81" value="produce" style="rhombus;whiteSpace=wrap;html=1;" vertex="1" parent="1">
          <mxGeometry x="510.5" y="520" width="90" height="60" as="geometry" />
        </mxCell>
        <mxCell id="pYIt9gIeH62Lgz-Wt7QY-90" style="rounded=0;orthogonalLoop=1;jettySize=auto;html=1;exitX=0.5;exitY=0;exitDx=0;exitDy=0;entryX=0.5;entryY=1;entryDx=0;entryDy=0;endArrow=none;endFill=0;startArrow=classic;startFill=1;" edge="1" parent="1" source="pYIt9gIeH62Lgz-Wt7QY-83" target="pYIt9gIeH62Lgz-Wt7QY-81">
          <mxGeometry relative="1" as="geometry" />
        </mxCell>
        <mxCell id="pYIt9gIeH62Lgz-Wt7QY-88" style="rounded=0;orthogonalLoop=1;jettySize=auto;html=1;exitX=1;exitY=0;exitDx=0;exitDy=0;entryX=0.25;entryY=1;entryDx=0;entryDy=0;endArrow=none;endFill=0;" edge="1" parent="1" source="pYIt9gIeH62Lgz-Wt7QY-84" target="pYIt9gIeH62Lgz-Wt7QY-83">
          <mxGeometry relative="1" as="geometry" />
        </mxCell>
        <mxCell id="pYIt9gIeH62Lgz-Wt7QY-84" value="&lt;u&gt;razon_social&lt;/u&gt;" style="ellipse;whiteSpace=wrap;html=1;" vertex="1" parent="1">
          <mxGeometry x="450" y="692.5" width="80" height="30" as="geometry" />
        </mxCell>
        <mxCell id="pYIt9gIeH62Lgz-Wt7QY-89" style="rounded=0;orthogonalLoop=1;jettySize=auto;html=1;exitX=0;exitY=0;exitDx=0;exitDy=0;entryX=0.75;entryY=1;entryDx=0;entryDy=0;endArrow=none;endFill=0;" edge="1" parent="1" source="pYIt9gIeH62Lgz-Wt7QY-87" target="pYIt9gIeH62Lgz-Wt7QY-83">
          <mxGeometry relative="1" as="geometry" />
        </mxCell>
        <mxCell id="pYIt9gIeH62Lgz-Wt7QY-87" value="fecha_fundacion" style="ellipse;whiteSpace=wrap;html=1;" vertex="1" parent="1">
          <mxGeometry x="570" y="690" width="100" height="35" as="geometry" />
        </mxCell>
        <mxCell id="pYIt9gIeH62Lgz-Wt7QY-92" style="rounded=0;orthogonalLoop=1;jettySize=auto;html=1;exitX=1;exitY=0;exitDx=0;exitDy=0;entryX=0.25;entryY=1;entryDx=0;entryDy=0;endArrow=none;endFill=0;" edge="1" parent="1" source="pYIt9gIeH62Lgz-Wt7QY-91" target="pYIt9gIeH62Lgz-Wt7QY-1">
          <mxGeometry relative="1" as="geometry" />
        </mxCell>
        <mxCell id="pYIt9gIeH62Lgz-Wt7QY-91" value="actor_principal" style="ellipse;whiteSpace=wrap;html=1;" vertex="1" parent="1">
          <mxGeometry x="91.12" y="280" width="94.75" height="30" as="geometry" />
        </mxCell>
        <mxCell id="pYIt9gIeH62Lgz-Wt7QY-93" value="&lt;u&gt;id&lt;/u&gt;" style="ellipse;whiteSpace=wrap;html=1;" vertex="1" parent="1">
          <mxGeometry x="290.75" y="260" width="35" height="30" as="geometry" />
        </mxCell>
        <mxCell id="pYIt9gIeH62Lgz-Wt7QY-98" value="&lt;u&gt;id&lt;/u&gt;" style="ellipse;whiteSpace=wrap;html=1;" vertex="1" parent="1">
          <mxGeometry x="394" y="510" width="40" height="20" as="geometry" />
        </mxCell>
        <mxCell id="pYIt9gIeH62Lgz-Wt7QY-100" value="G = 2" style="text;html=1;strokeColor=none;fillColor=none;align=center;verticalAlign=middle;whiteSpace=wrap;rounded=0;" vertex="1" parent="1">
          <mxGeometry x="260" y="570" width="49.25" height="15" as="geometry" />
        </mxCell>
        <mxCell id="pYIt9gIeH62Lgz-Wt7QY-101" value="G = 2" style="text;html=1;strokeColor=none;fillColor=none;align=center;verticalAlign=middle;whiteSpace=wrap;rounded=0;" vertex="1" parent="1">
          <mxGeometry x="580" y="570" width="49.25" height="15" as="geometry" />
        </mxCell>
        <mxCell id="pYIt9gIeH62Lgz-Wt7QY-102" value="G = 2" style="text;html=1;strokeColor=none;fillColor=none;align=center;verticalAlign=middle;whiteSpace=wrap;rounded=0;" vertex="1" parent="1">
          <mxGeometry x="580" y="345" width="49.25" height="15" as="geometry" />
        </mxCell>
        <mxCell id="pYIt9gIeH62Lgz-Wt7QY-103" value="G = 2" style="text;html=1;strokeColor=none;fillColor=none;align=center;verticalAlign=middle;whiteSpace=wrap;rounded=0;" vertex="1" parent="1">
          <mxGeometry x="260" y="345" width="49.25" height="15" as="geometry" />
        </mxCell>
        <mxCell id="pYIt9gIeH62Lgz-Wt7QY-104" value="(M, M)" style="text;html=1;strokeColor=none;fillColor=none;align=center;verticalAlign=middle;whiteSpace=wrap;rounded=0;" vertex="1" parent="1">
          <mxGeometry x="260" y="300" width="49.25" height="15" as="geometry" />
        </mxCell>
        <mxCell id="pYIt9gIeH62Lgz-Wt7QY-105" value="(M, M)" style="text;html=1;strokeColor=none;fillColor=none;align=center;verticalAlign=middle;whiteSpace=wrap;rounded=0;" vertex="1" parent="1">
          <mxGeometry x="260" y="520" width="49.25" height="15" as="geometry" />
        </mxCell>
        <mxCell id="pYIt9gIeH62Lgz-Wt7QY-106" value="(M, 1)" style="text;html=1;strokeColor=none;fillColor=none;align=center;verticalAlign=middle;whiteSpace=wrap;rounded=0;" vertex="1" parent="1">
          <mxGeometry x="560" y="505" width="49.25" height="15" as="geometry" />
        </mxCell>
        <mxCell id="pYIt9gIeH62Lgz-Wt7QY-107" value="(M, M)" style="text;html=1;strokeColor=none;fillColor=none;align=center;verticalAlign=middle;whiteSpace=wrap;rounded=0;" vertex="1" parent="1">
          <mxGeometry x="580" y="295" width="49.25" height="15" as="geometry" />
        </mxCell>
      </root>
    </mxGraphModel>
  </diagram>
</mxfile>
